<mxfile host="app.diagrams.net" modified="2024-04-27T02:39:43.572Z" agent="Mozilla/5.0 (Windows NT 10.0; Win64; x64) AppleWebKit/537.36 (KHTML, like Gecko) Chrome/109.0.0.0 Safari/537.36" version="24.3.1" etag="RYonWnZSoWNdW9iP7366" type="github">
  <diagram name="Page-1" id="AeDM9YgmILj4YXDEfFC5">
    <mxGraphModel>
      <root>
        <mxCell id="0" />
        <mxCell id="1" parent="0" />
      </root>
    </mxGraphModel>
  </diagram>
</mxfile>
